<svg xmlns="http://www.w3.org/2000/svg" viewBox="0 0 16 16"><path id="folder" fill="#546e7a" d="m6.922 3.768-.644-.536A1 1 0 0 0 5.638 3H2a1 1 0 0 0-1 1v8a1 1 0 0 0 1 1h12a1 1 0 0 0 1-1V5a1 1 0 0 0-1-1H7.562a1 1 0 0 1-.64-.232"/><g id="motive"><path fill="#cfd8dc" fill-rule="evenodd" d="M11.5 6.4a3.6 3.6 0 1 0 0 7.2 3.6 3.6 0 1 0 0-7.2m0 .9a2.7 2.7 0 1 1 0 5.4 2.7 2.7 0 1 1 0-5.4"/><path fill="#cfd8dc" fill-rule="evenodd" d="M11.5 6.4a1.7 3.6 0 1 0 0 7.2 1.7 3.6 0 1 0 0-7.2m0 .9a.9 2.7 0 1 1 0 5.4.9 2.7 0 1 1 0-5.4"/><path fill="#cfd8dc" d="M8.1 9.55h6.8v.9H8.1z"/></g></svg>
